<svg width="87" height="92" viewBox="0 0 87 92" fill="none" xmlns="http://www.w3.org/2000/svg">
<path d="M48.9713 45.0923C50.9321 42.7147 50.4752 39.1674 47.9509 37.1692C45.4264 35.1711 41.7903 35.4787 39.8295 37.8562C35.9077 42.6115 36.8214 49.706 41.8702 53.7024C46.9191 57.6987 54.1913 57.0836 58.113 52.3284C63.9957 45.1956 62.6252 34.5537 55.0519 28.5592C47.4786 22.5646 36.5703 23.4874 30.6876 30.6202C22.8441 40.1306 24.6715 54.3197 34.7692 62.3124C44.8669 70.3051 59.4112 69.0748 67.2548 59.5644C77.0593 47.6764 74.775 29.94 62.1529 19.9491C49.5307 9.95821 31.3503 11.4961 21.5458 23.3841C9.78049 37.6498 12.5215 58.9335 27.6682 70.9225C42.8148 82.9116 64.6313 81.0662 76.3966 66.8005C90.1229 50.1573 86.925 25.3264 69.2539 11.3391C51.5828 -2.6482 26.1302 -0.495129 12.404 16.1481C-3.28308 35.1689 0.371633 63.5471 20.5672 79.5326C40.7627 95.518 69.8513 93.0574 85.5384 74.0366" stroke="#0C6E5F" stroke-width="3.65388" stroke-miterlimit="22.9256"/>
</svg>
