<svg width="97" height="93" viewBox="0 0 97 93" fill="none" xmlns="http://www.w3.org/2000/svg">
<path fill-rule="evenodd" clip-rule="evenodd" d="M32.3817 18.6067L52.7754 30.1666L76.3837 22.0019L69.6627 44.9753L83.4125 63.3564L58.8649 65.9948L43.7543 85.5196L35.3042 64.1769L12.2156 57.8628L31.5407 42.0338L32.3817 18.6067Z" stroke="#E4212A" stroke-width="2.52557" stroke-miterlimit="22.9256"/>
<path fill-rule="evenodd" clip-rule="evenodd" d="M40.5695 34.189L51.8033 35.0558L63.0372 35.9226L64.8316 46.4806L66.6261 57.0384L56.5012 62.6968L46.3764 68.3551L38.3245 61.2942L30.2726 54.2333L35.4211 44.2112L40.5695 34.189Z" stroke="#373535" stroke-width="2.52557" stroke-miterlimit="22.9256"/>
<path d="M54.1206 58.4361C58.8087 55.8161 60.4853 49.8917 57.8653 45.2035C55.2453 40.5154 49.3208 38.8388 44.6327 41.4588C39.9445 44.0788 38.268 50.0033 40.888 54.6914C43.508 59.3796 49.4324 61.0561 54.1206 58.4361Z" stroke="#0C6E5F" stroke-width="1.93168" stroke-miterlimit="22.9256"/>
<path d="M51.112 53.0546C52.8277 52.0958 53.4413 49.9276 52.4824 48.2118C51.5236 46.4961 49.3554 45.8825 47.6396 46.8413C45.9239 47.8002 45.3103 49.9684 46.2691 51.6842C47.228 53.3999 49.3962 54.0135 51.112 53.0546Z" fill="#0C6E5F" stroke="#0C6E5F" stroke-width="0.706951" stroke-miterlimit="22.9256"/>
<path d="M84.9175 48.5944C87.3765 47.9281 88.8299 45.3946 88.1636 42.9355C87.4974 40.4765 84.9638 39.0231 82.5047 39.6894C80.0457 40.3556 78.5924 42.8892 79.2586 45.3483C79.9249 47.8073 82.4584 49.2606 84.9175 48.5944Z" fill="#EC9120" stroke="#EC9120" stroke-width="0.916353" stroke-miterlimit="22.9256"/>
<path fill-rule="evenodd" clip-rule="evenodd" d="M40.5695 34.189L51.8033 35.0558L63.0372 35.9226L64.8316 46.4806L66.6261 57.0384L56.5012 62.6968L46.3764 68.3551L38.3245 61.2942L30.2726 54.2333L35.4211 44.2112L40.5695 34.189Z" stroke="#EC9120" stroke-width="2.52557" stroke-miterlimit="22.9256"/>
<path d="M29.6702 80.0928C32.1292 79.4265 33.5825 76.893 32.9163 74.4339C32.25 71.9749 29.7165 70.5216 27.2574 71.1878C24.7984 71.8541 23.345 74.3876 24.0113 76.8467C24.6775 79.3057 27.2111 80.7591 29.6702 80.0928Z" fill="#E4212A"/>
<path d="M21.793 43.2003C24.252 42.534 25.7053 40.0005 25.0391 37.5414C24.3728 35.0824 21.8393 33.629 19.3802 34.2953C16.9212 34.9615 15.4678 37.4951 16.1341 39.9541C16.8003 42.4132 19.3339 43.8665 21.793 43.2003Z" fill="#09705F" stroke="#0C6E5F" stroke-width="0.916353" stroke-miterlimit="22.9256"/>
<path d="M62.6505 5.79578L58.644 4.44543L52.5675 22.4746L56.5739 23.825L62.6505 5.79578Z" fill="#0C6E5F" stroke="#0C6E5F" stroke-width="1.77246" stroke-miterlimit="22.9256"/>
</svg>
