<svg width="67" height="62" viewBox="0 0 67 62" fill="none" xmlns="http://www.w3.org/2000/svg">
<path d="M34.3084 29.9186C34.8638 27.8621 33.5634 25.7596 31.4039 25.2226C29.2443 24.6855 27.0433 25.9173 26.4878 27.9738C25.3768 32.0869 27.9776 36.2918 32.2968 37.3659C36.616 38.44 41.018 35.9764 42.1289 31.8634C43.7954 25.6938 39.8942 19.3864 33.4155 17.7753C26.9367 16.1641 20.3337 19.8595 18.6672 26.0291C16.4453 34.2551 21.6468 42.6651 30.2852 44.8132C38.9235 46.9613 47.7276 42.0342 49.9495 33.8082C52.7269 23.5256 46.225 13.0131 35.427 10.328C24.6291 7.64278 13.624 13.8017 10.8466 24.0843C7.51374 36.4234 15.316 49.0384 28.2736 52.2605C41.2312 55.4827 54.4372 48.0921 57.7701 35.7529C61.6585 21.3573 52.5558 6.63991 37.4386 2.88066C22.3215 -0.878583 6.91443 7.74392 3.02605 22.1395C-1.41781 38.5917 8.98527 55.4116 26.262 59.7078C43.5388 64.0041 61.1468 54.1499 65.5907 37.6977" stroke="#EC9120" stroke-width="2.52557" stroke-miterlimit="22.9256"/>
</svg>
