<svg width="316" height="316" viewBox="0 0 316 316" fill="none" xmlns="http://www.w3.org/2000/svg">
<path d="M316 158C316 70.739 245.261 0 158 0C70.739 0 0 70.739 0 158C0 245.261 70.739 316 158 316C245.261 316 316 245.261 316 158Z" fill="white"/>
<path d="M187.625 222.188V202.438H123.438V222.188H187.625Z" fill="black"/>
<path fill-rule="evenodd" clip-rule="evenodd" d="M29.625 98.75V202.438H66.2208C95.0938 202.438 118.5 179.226 118.5 150.594C118.5 121.961 95.0938 98.75 66.2208 98.75H29.625ZM52.0304 120.969V180.219H66.2208C82.7194 180.219 96.0946 166.955 96.0946 150.594C96.0946 134.232 82.7194 120.969 66.2208 120.969H52.0304Z" fill="black"/>
<path fill-rule="evenodd" clip-rule="evenodd" d="M202.438 98.75V202.438H239.033C267.906 202.438 291.312 179.226 291.312 150.594C291.312 121.961 267.906 98.75 239.033 98.75H202.438ZM224.843 120.969V180.219H239.033C255.532 180.219 268.907 166.955 268.907 150.594C268.907 134.232 255.532 120.969 239.033 120.969H224.843Z" fill="black"/>
</svg>
