<svg width="27" height="21" viewBox="0 0 27 21" fill="none" xmlns="http://www.w3.org/2000/svg">
<path d="M22.8566 2.59174C21.1358 1.83669 19.2904 1.2804 17.3609 0.961786C17.3257 0.955637 17.2906 0.971004 17.2725 1.00174C17.0352 1.40538 16.7723 1.93196 16.5882 2.34585C14.513 2.04876 12.4483 2.04876 10.4156 2.34585C10.2315 1.92276 9.95905 1.40538 9.72065 1.00174C9.70255 0.972029 9.66745 0.956662 9.63231 0.961786C7.7039 1.27938 5.85851 1.83567 4.13655 2.59174C4.12164 2.59789 4.10887 2.60814 4.10039 2.62145C0.600066 7.62196 -0.358819 12.4996 0.111578 17.3167C0.113706 17.3403 0.127541 17.3628 0.146698 17.3771C2.45611 18.9989 4.69317 19.9834 6.88869 20.636C6.92383 20.6463 6.96106 20.634 6.98342 20.6063C7.50277 19.9281 7.96572 19.213 8.36266 18.461C8.38609 18.417 8.36372 18.3647 8.31585 18.3473C7.58152 18.0809 6.8823 17.7562 6.2097 17.3874C6.15649 17.3577 6.15224 17.2849 6.20118 17.2501C6.34272 17.1487 6.4843 17.0431 6.61945 16.9366C6.6439 16.9171 6.67797 16.913 6.70672 16.9253C11.1254 18.8544 15.9092 18.8544 20.2758 16.9253C20.3046 16.912 20.3386 16.9161 20.3642 16.9356C20.4994 17.0421 20.6409 17.1487 20.7835 17.2501C20.8324 17.2849 20.8292 17.3577 20.776 17.3874C20.1034 17.7633 19.4042 18.0809 18.6688 18.3463C18.6209 18.3637 18.5997 18.417 18.6231 18.461C19.0285 19.212 19.4915 19.9271 20.0013 20.6053C20.0226 20.634 20.0608 20.6463 20.096 20.636C22.3022 19.9834 24.5392 18.9989 26.8486 17.3771C26.8688 17.3628 26.8816 17.3413 26.8837 17.3177C27.4467 11.7486 25.9408 6.91098 22.8917 2.62247C22.8843 2.60814 22.8715 2.59789 22.8566 2.59174ZM9.02253 14.3836C7.69219 14.3836 6.59602 13.2157 6.59602 11.7814C6.59602 10.3471 7.67093 9.1792 9.02253 9.1792C10.3847 9.1792 11.4703 10.3573 11.449 11.7814C11.449 13.2157 10.3741 14.3836 9.02253 14.3836ZM17.9941 14.3836C16.6638 14.3836 15.5676 13.2157 15.5676 11.7814C15.5676 10.3471 16.6425 9.1792 17.9941 9.1792C19.3563 9.1792 20.4419 10.3573 20.4206 11.7814C20.4206 13.2157 19.3563 14.3836 17.9941 14.3836Z" fill="white"/>
</svg>
