<svg width="22" height="18" viewBox="0 0 22 18" fill="none" xmlns="http://www.w3.org/2000/svg">
<path d="M21.0257 2.93593C20.2544 3.27797 19.4246 3.50931 18.5544 3.61263C19.4429 3.08032 20.1247 2.23805 20.4466 1.23278C19.6152 1.72595 18.694 2.08371 17.7144 2.27655C16.9296 1.4407 15.8114 0.918335 14.5731 0.918335C12.1975 0.918335 10.2707 2.84512 10.2707 5.2208C10.2707 5.55803 10.3089 5.88627 10.3827 6.20136C6.80695 6.022 3.63649 4.30923 1.5143 1.70541C1.14402 2.34073 0.931609 3.08032 0.931609 3.86868C0.931609 5.36102 1.69174 6.67849 2.84556 7.44985C2.14062 7.42771 1.47676 7.23423 0.896956 6.91112C0.896635 6.9294 0.896635 6.94769 0.896635 6.96566C0.896635 9.05032 2.38031 10.7891 4.34817 11.1841C3.98752 11.2829 3.60665 11.3352 3.21488 11.3352C2.93701 11.3352 2.66781 11.3086 2.40534 11.2585C2.95273 12.9674 4.54133 14.2114 6.42448 14.2464C4.95172 15.4005 3.0968 16.0882 1.08049 16.0882C0.733957 16.0882 0.390632 16.0679 0.0546875 16.0278C1.95773 17.249 4.21982 17.961 6.64941 17.961C14.5632 17.961 18.891 11.4051 18.891 5.7191C18.891 5.53268 18.8868 5.3469 18.8785 5.16273C19.7198 4.55629 20.4491 3.79873 21.0257 2.93593Z" fill="#F1F2F2"/>
</svg>
