<svg xmlns="http://www.w3.org/2000/svg" viewBox="0 0 40 40"><path fill="#f1f2f2" d="M15.52 34a9.42 9.42 0 0 1-9.42-9.42v-9.29A9.29 9.29 0 0 1 15.38 6h4.93c4.16 0 8.23 3.61 8.23 7v1.45a2.34 2.34 0 0 0 2.34 2.34h1.46a1.56 1.56 0 0 1 1.56 1.56v6.5A9.11 9.11 0 0 1 24.79 34Zm6.38-18.93a1.75 1.75 0 0 0-1.75-1.75h-5.27a1.75 1.75 0 0 0-1.76 1.75 1.76 1.76 0 0 0 1.76 1.76h5.27a1.75 1.75 0 0 0 1.75-1.76ZM27 25a1.75 1.75 0 0 0-1.76-1.75H14.88A1.75 1.75 0 0 0 13.12 25a1.76 1.76 0 0 0 1.76 1.76h10.34A1.76 1.76 0 0 0 27 25Z"/></svg>