<svg width="21" height="20" viewBox="0 0 21 20" fill="none" xmlns="http://www.w3.org/2000/svg">
<path d="M20.7549 12.4483V19.8693H16.4524V12.9456C16.4524 11.2071 15.8312 10.0199 14.2734 10.0199C13.0846 10.0199 12.3783 10.8192 12.0665 11.5931C11.9532 11.8697 11.924 12.2538 11.924 12.6417V19.8689H7.62117C7.62117 19.8689 7.67892 8.14254 7.62117 6.9287H11.9243V8.76245C11.9157 8.77689 11.9035 8.79101 11.8958 8.80481H11.9243V8.76245C12.4961 7.88263 13.5158 6.62484 15.802 6.62484C18.6327 6.62484 20.7549 8.47431 20.7549 12.4483ZM3.12004 0.69104C1.64822 0.69104 0.685303 1.65717 0.685303 2.92652C0.685303 4.16892 1.62031 5.16296 3.06357 5.16296H3.09149C4.59218 5.16296 5.52526 4.16892 5.52526 2.92652C5.49671 1.65717 4.59218 0.69104 3.12004 0.69104ZM0.941034 19.8693H5.24226V6.9287H0.941034V19.8693Z" fill="#F1F2F2"/>
</svg>
