<svg width="22" height="18" viewBox="0 0 22 18" fill="none" xmlns="http://www.w3.org/2000/svg">
<path d="M21.0257 2.93605C20.2543 3.27809 19.4246 3.50943 18.5544 3.61275C19.4428 3.08044 20.1247 2.23817 20.4465 1.2329C19.6151 1.72607 18.6939 2.08384 17.7143 2.27668C16.9295 1.44082 15.8113 0.918457 14.5731 0.918457C12.1974 0.918457 10.2706 2.84525 10.2706 5.22092C10.2706 5.55815 10.3088 5.8864 10.3826 6.20149C6.80689 6.02212 3.63643 4.30935 1.51424 1.70554C1.14396 2.34085 0.931548 3.08044 0.931548 3.8688C0.931548 5.36114 1.69167 6.67861 2.8455 7.44997C2.14056 7.42783 1.4767 7.23435 0.896895 6.91124C0.896574 6.92953 0.896574 6.94781 0.896574 6.96578C0.896574 9.05044 2.38025 10.7892 4.34811 11.1842C3.98746 11.283 3.60659 11.3353 3.21482 11.3353C2.93695 11.3353 2.66774 11.3087 2.40528 11.2586C2.95267 12.9675 4.54127 14.2115 6.42442 14.2465C4.95166 15.4007 3.09674 16.0883 1.08043 16.0883C0.733896 16.0883 0.390571 16.0681 0.0546265 16.0279C1.95767 17.2492 4.21976 17.9612 6.64935 17.9612C14.5631 17.9612 18.891 11.4053 18.891 5.71923C18.891 5.5328 18.8868 5.34702 18.8784 5.16285C19.7198 4.55641 20.4491 3.79886 21.0257 2.93605Z" fill="#EC9120"/>
</svg>
