<svg width="78" height="66" viewBox="0 0 78 66" fill="none" xmlns="http://www.w3.org/2000/svg">
<path d="M4.30069 48.275C4.15035 48.275 4.01612 48.2266 3.898 48.13C3.79062 48.0334 3.71545 47.9099 3.6725 47.7595L0.370471 36.5971C0.295303 36.3393 0.306041 36.1246 0.402686 35.9528C0.510069 35.781 0.676513 35.695 0.902017 35.695C1.03088 35.695 1.149 35.7326 1.25638 35.8078C1.3745 35.8722 1.46041 35.9957 1.5141 36.1783L4.49398 46.5515H4.12351L6.94231 36.4521C6.97452 36.334 7.04432 36.2373 7.15171 36.1622C7.26983 36.087 7.39869 36.0494 7.53829 36.0494C7.66714 36.0494 7.79064 36.087 7.90876 36.1622C8.02688 36.2266 8.10205 36.3286 8.13426 36.4682L10.9692 46.5515H10.5987L13.5947 36.1138C13.6699 35.8346 13.8739 35.695 14.2068 35.695C14.4323 35.695 14.588 35.7863 14.6739 35.9689C14.7598 36.1407 14.7705 36.3501 14.7061 36.5971L11.4202 47.7434C11.3665 47.9152 11.2806 48.0495 11.1625 48.1461C11.0551 48.232 10.9262 48.275 10.7759 48.275C10.6255 48.275 10.4913 48.2266 10.3732 48.13C10.2658 48.0334 10.1906 47.9099 10.1477 47.7595L7.345 37.5313H7.73157L4.94499 47.7434C4.89129 47.9045 4.80539 48.0334 4.68727 48.13C4.57988 48.2266 4.45102 48.275 4.30069 48.275ZM17.3554 48.275C17.1728 48.275 17.0225 48.2159 16.9044 48.0978C16.7863 47.9797 16.7272 47.8293 16.7272 47.6468V36.3232C16.7272 36.1407 16.7863 35.9903 16.9044 35.8722C17.0225 35.7541 17.1728 35.695 17.3554 35.695H24.9098C25.0816 35.695 25.2266 35.7541 25.3447 35.8722C25.4735 35.9796 25.538 36.1246 25.538 36.3071C25.538 36.4682 25.4735 36.6078 25.3447 36.7259C25.2266 36.844 25.0816 36.9031 24.9098 36.9031H17.9836V41.3488H23.0252C23.2078 41.3488 23.3581 41.4078 23.4762 41.5259C23.5943 41.6441 23.6534 41.789 23.6534 41.9608C23.6534 42.1327 23.5943 42.2776 23.4762 42.3957C23.3581 42.5139 23.2078 42.5729 23.0252 42.5729H17.9836V47.0669H24.9098C25.0816 47.0669 25.2266 47.126 25.3447 47.2441C25.4735 47.3622 25.538 47.5018 25.538 47.6629C25.538 47.8454 25.4735 47.9958 25.3447 48.1139C25.2266 48.2213 25.0816 48.275 24.9098 48.275H17.3554ZM28.5885 48.275C28.3844 48.275 28.2126 48.2213 28.073 48.1139C27.9442 47.9958 27.8797 47.8401 27.8797 47.6468V36.3232C27.8797 36.1407 27.9388 35.9903 28.0569 35.8722C28.175 35.7541 28.3254 35.695 28.5079 35.695H32.422C33.0663 35.695 33.6462 35.8346 34.1616 36.1138C34.6878 36.3823 35.1012 36.7528 35.4019 37.2253C35.7133 37.6977 35.869 38.2454 35.869 38.8682C35.869 39.4481 35.7133 39.9635 35.4019 40.4145C35.0905 40.8655 34.6824 41.2092 34.1777 41.4454C34.8972 41.6387 35.4771 42.0038 35.9173 42.5407C36.3576 43.0669 36.5777 43.738 36.5777 44.5541C36.5777 45.2843 36.4113 45.9286 36.0784 46.487C35.7455 47.0454 35.2838 47.4857 34.6932 47.8078C34.1133 48.1193 33.4475 48.275 32.6959 48.275H28.5885ZM29.1361 47.0669H32.6959C33.2113 47.0669 33.6677 46.9649 34.065 46.7609C34.4623 46.5568 34.7737 46.2669 34.9992 45.8911C35.2247 45.5152 35.3375 45.0696 35.3375 44.5541C35.3375 44.0709 35.2247 43.6521 34.9992 43.2978C34.7737 42.9327 34.4623 42.6535 34.065 42.4602C33.6677 42.2561 33.2113 42.1541 32.6959 42.1541H29.1361V47.0669ZM29.1361 40.9461H32.422C33.0663 40.9461 33.5979 40.7635 34.0167 40.3984C34.4355 40.0333 34.6449 39.5233 34.6449 38.8682C34.6449 38.2239 34.4355 37.7353 34.0167 37.4024C33.5979 37.0695 33.0663 36.9031 32.422 36.9031H29.1361V40.9461ZM42.3009 48.3555C41.5492 48.3555 40.8727 48.1944 40.2714 47.8723C39.6808 47.5394 39.2137 47.0884 38.87 46.5193C38.5264 45.9501 38.3546 45.3058 38.3546 44.5864C38.3546 44.4038 38.4083 44.2481 38.5157 44.1192C38.6231 43.9904 38.768 43.926 38.9506 43.926C39.1331 43.926 39.2781 43.9904 39.3855 44.1192C39.4929 44.2481 39.5465 44.4038 39.5465 44.5864C39.5465 45.0803 39.6647 45.526 39.9009 45.9233C40.1372 46.3099 40.4593 46.6213 40.8674 46.8575C41.2862 47.083 41.7479 47.1958 42.2526 47.1958C43.0902 47.1958 43.7452 46.9649 44.2177 46.5031C44.6902 46.0307 44.9264 45.4239 44.9264 44.683C44.9264 44.1568 44.8137 43.7004 44.5882 43.3139C44.3627 42.9166 44.0566 42.6105 43.6701 42.3957C43.2835 42.1702 42.8486 42.0575 42.3654 42.0575C42.1935 42.0575 42.0486 41.9984 41.9305 41.8803C41.8123 41.7622 41.7533 41.6118 41.7533 41.4293C41.7533 41.2575 41.8123 41.1125 41.9305 40.9944C42.0486 40.8763 42.1935 40.8172 42.3654 40.8172C42.7412 40.8172 43.0848 40.7259 43.3962 40.5434C43.7184 40.3501 43.9761 40.0977 44.1694 39.7863C44.3627 39.4749 44.4593 39.1313 44.4593 38.7555C44.4593 38.1863 44.266 37.7138 43.8795 37.338C43.4929 36.9514 42.9774 36.7581 42.3331 36.7581C41.8821 36.7581 41.4794 36.8494 41.1251 37.032C40.7707 37.2038 40.4915 37.44 40.2875 37.7407C40.0942 38.0306 39.9976 38.3635 39.9976 38.7394C39.9976 38.9219 39.9385 39.0776 39.8204 39.2065C39.713 39.3246 39.5734 39.3837 39.4016 39.3837C39.219 39.3837 39.0741 39.3246 38.9667 39.2065C38.8593 39.0776 38.8056 38.9273 38.8056 38.7555C38.8056 38.1649 38.9559 37.6333 39.2566 37.1608C39.568 36.6776 39.9868 36.3018 40.513 36.0333C41.0392 35.7541 41.6459 35.6145 42.3331 35.6145C42.956 35.6145 43.5144 35.7541 44.0083 36.0333C44.513 36.3018 44.9103 36.6776 45.2003 37.1608C45.5009 37.6333 45.6513 38.1649 45.6513 38.7555C45.6513 39.1206 45.56 39.4749 45.3774 39.8186C45.2056 40.1622 44.9748 40.4736 44.6848 40.7528C44.3949 41.0212 44.0781 41.2306 43.7345 41.381C44.2821 41.5421 44.7385 41.789 45.1036 42.1219C45.4687 42.4548 45.7372 42.8468 45.909 43.2978C46.0808 43.738 46.1667 44.1998 46.1667 44.683C46.1667 45.3917 45.9949 46.0253 45.6513 46.5837C45.3184 47.1313 44.8566 47.5662 44.266 47.8884C43.6754 48.1998 43.0204 48.3555 42.3009 48.3555ZM0.918125 65.275C0.671144 65.275 0.493962 65.1729 0.386579 64.9689C0.279196 64.7649 0.268457 64.5662 0.354364 64.3729L5.08995 53.1299C5.20807 52.84 5.4121 52.695 5.70204 52.695C5.98123 52.695 6.17989 52.84 6.29801 53.1299L11.0497 64.3891C11.1464 64.5931 11.1302 64.7917 11.0014 64.985C10.8833 65.1783 10.7115 65.275 10.4859 65.275C10.3571 65.275 10.239 65.2427 10.1316 65.1783C10.0349 65.1139 9.9544 65.0172 9.88997 64.8884L5.46042 54.1447H5.95976L1.49799 64.8884C1.4443 65.0172 1.36376 65.1139 1.25638 65.1783C1.15974 65.2427 1.04698 65.275 0.918125 65.275ZM1.98122 62.279L2.46444 61.1998H9.00406L9.48729 62.279H1.98122ZM12.5658 65.275C12.394 65.275 12.2437 65.2159 12.1148 65.0978C11.9967 64.9689 11.9376 64.8186 11.9376 64.6468V53.3232C11.9376 53.1407 11.9967 52.9903 12.1148 52.8722C12.2329 52.7541 12.3833 52.695 12.5658 52.695H20.1202C20.3028 52.695 20.4531 52.7541 20.5712 52.8722C20.6893 52.9796 20.7484 53.1246 20.7484 53.3071C20.7484 53.4682 20.6893 53.6078 20.5712 53.7259C20.4531 53.844 20.3028 53.9031 20.1202 53.9031H13.194V58.3488H18.2356C18.4182 58.3488 18.5685 58.4078 18.6867 58.5259C18.8048 58.6441 18.8638 58.789 18.8638 58.9608C18.8638 59.1327 18.8048 59.2776 18.6867 59.3957C18.5685 59.5139 18.4182 59.5729 18.2356 59.5729H13.194V64.6468C13.194 64.8186 13.135 64.9689 13.0168 65.0978C12.8987 65.2159 12.7484 65.275 12.5658 65.275ZM23.6316 65.275C23.4491 65.275 23.2988 65.2159 23.1806 65.0978C23.0625 64.9797 23.0034 64.8293 23.0034 64.6468V53.3232C23.0034 53.1407 23.0625 52.9903 23.1806 52.8722C23.2988 52.7541 23.4491 52.695 23.6316 52.695H26.6437C27.4276 52.695 28.1256 52.8615 28.7377 53.1944C29.3498 53.5165 29.8276 53.9729 30.1713 54.5635C30.5256 55.1434 30.7028 55.8145 30.7028 56.5769C30.7028 57.3071 30.5256 57.9568 30.1713 58.5259C29.8276 59.0951 29.3498 59.5407 28.7377 59.8629C28.1256 60.185 27.4276 60.3461 26.6437 60.3461H24.2598V64.6468C24.2598 64.8293 24.2008 64.9797 24.0826 65.0978C23.9645 65.2159 23.8142 65.275 23.6316 65.275ZM30.3646 65.275C30.225 65.275 30.1122 65.2481 30.0263 65.1944C29.9511 65.1407 29.8813 65.0602 29.8169 64.9528L26.7243 60.0239L27.9806 59.7018L30.8639 64.3085C31.025 64.5662 31.0518 64.7917 30.9444 64.985C30.8478 65.1783 30.6545 65.275 30.3646 65.275ZM24.2598 59.138H26.6437C27.1914 59.138 27.6746 59.0306 28.0934 58.8159C28.5229 58.5904 28.8612 58.2843 29.1082 57.8978C29.3552 57.5112 29.4786 57.0709 29.4786 56.5769C29.4786 56.0508 29.3552 55.589 29.1082 55.1917C28.8612 54.7836 28.5229 54.4669 28.0934 54.2414C27.6746 54.0159 27.1914 53.9031 26.6437 53.9031H24.2598V59.138ZM33.5887 65.275C33.4061 65.275 33.2558 65.2159 33.1377 65.0978C33.0196 64.9797 32.9605 64.8293 32.9605 64.6468V53.3232C32.9605 53.1407 33.0196 52.9903 33.1377 52.8722C33.2558 52.7541 33.4061 52.695 33.5887 52.695C33.7712 52.695 33.9216 52.7541 34.0397 52.8722C34.1578 52.9903 34.2169 53.1407 34.2169 53.3232V64.6468C34.2169 64.8293 34.1578 64.9797 34.0397 65.0978C33.9216 65.2159 33.7712 65.275 33.5887 65.275ZM38.0717 65.275C37.8999 65.275 37.7496 65.2159 37.6207 65.0978C37.5026 64.9689 37.4435 64.8186 37.4435 64.6468V53.3232C37.4435 53.1514 37.5026 53.0065 37.6207 52.8883C37.7496 52.7595 37.8999 52.695 38.0717 52.695C38.2435 52.695 38.3885 52.7595 38.5066 52.8883C38.6355 53.0065 38.6999 53.1514 38.6999 53.3232V58.7998L44.5791 52.9206C44.665 52.8346 44.7456 52.7756 44.8207 52.7434C44.8959 52.7112 44.9818 52.695 45.0784 52.695C45.2717 52.695 45.4167 52.7541 45.5134 52.8722C45.61 52.9903 45.6529 53.1353 45.6422 53.3071C45.6422 53.4682 45.5778 53.6239 45.4489 53.7742L41.0355 58.1877L45.4972 64.2763C45.5939 64.4159 45.6315 64.5662 45.61 64.7273C45.5993 64.8776 45.5402 65.0065 45.4328 65.1139C45.3254 65.2213 45.1966 65.275 45.0462 65.275C44.81 65.275 44.6328 65.1837 44.5147 65.0011L40.1335 59.0736L38.6999 60.5233V64.6468C38.6999 64.8186 38.6355 64.9689 38.5066 65.0978C38.3885 65.2159 38.2435 65.275 38.0717 65.275ZM47.3057 65.275C47.0587 65.275 46.8815 65.1729 46.7741 64.9689C46.6668 64.7649 46.656 64.5662 46.7419 64.3729L51.4775 53.1299C51.5956 52.84 51.7997 52.695 52.0896 52.695C52.3688 52.695 52.5674 52.84 52.6856 53.1299L57.4373 64.3891C57.5339 64.5931 57.5178 64.7917 57.3889 64.985C57.2708 65.1783 57.099 65.275 56.8735 65.275C56.7446 65.275 56.6265 65.2427 56.5191 65.1783C56.4225 65.1139 56.342 65.0172 56.2775 64.8884L51.848 54.1447H52.3473L47.8856 64.8884C47.8319 65.0172 47.7513 65.1139 47.6439 65.1783C47.5473 65.2427 47.4345 65.275 47.3057 65.275ZM48.3688 62.279L48.852 61.1998H55.3916L55.8748 62.279H48.3688Z" fill="white"/>
<path fill-rule="evenodd" clip-rule="evenodd" d="M0 26.7386C0 27.8127 1.31606 28.3308 2.04828 27.545L10.4536 18.5247C10.915 18.0296 11.6969 18.0217 12.1681 18.5075L21.0342 27.6483C21.774 28.411 23.0661 27.8872 23.0661 26.8247V1.18288C23.0661 0.529593 22.5365 0 21.8833 0H1.18288C0.529591 0 0 0.529593 0 1.18288V26.7386Z" fill="#E4212A"/>
<path fill-rule="evenodd" clip-rule="evenodd" d="M28.3019 28.2257C27.2972 28.2257 26.7499 27.0524 27.3957 26.2826L36.4394 15.5019C36.7961 15.0767 36.8092 14.4606 36.4709 14.0207L27.2296 2.00199C26.6314 1.22407 27.186 0.0980835 28.1673 0.0980835H46.5642C47.2175 0.0980835 47.7471 0.627676 47.7471 1.28096V27.0429C47.7471 27.6962 47.2175 28.2257 46.5642 28.2257H28.3019Z" fill="#0C6E5F"/>
<path d="M51.8096 6.34633L54.7231 1.45807C55.1498 0.742115 55.9218 0.303528 56.7553 0.303528H66.4734C67.0789 0.303528 67.6614 0.535711 68.1009 0.952266L76.209 8.63752C76.4524 8.86823 76.644 9.14805 76.771 9.45843L77.3403 10.8495C77.7327 11.8081 77.4558 12.9104 76.6572 13.5699L74.9303 14.9958C74.5632 15.2989 74.2961 15.7058 74.1639 16.1631L72.3816 22.3299C72.3362 22.487 72.2746 22.639 72.1979 22.7833L70.2952 26.3632C69.8846 27.1358 69.0811 27.6187 68.2061 27.6187H66.4626C65.2872 27.6187 64.29 26.7557 64.1213 25.5924L62.9253 17.3436C62.8665 16.9377 62.703 16.554 62.4511 16.2302L60.2286 13.3741C59.7804 12.798 59.0914 12.4611 58.3615 12.4611H55.7884C55.0527 12.4611 54.3589 12.1189 53.9112 11.5352L51.9647 8.99736C51.3751 8.22876 51.3137 7.17841 51.8096 6.34633Z" fill="#EC9120"/>
</svg>
